<mxfile host="app.diagrams.net" modified="2021-12-13T13:08:35.870Z" agent="5.0 (X11; Linux x86_64) AppleWebKit/537.36 (KHTML, like Gecko) Chrome/96.0.4664.97 Safari/537.36" etag="bhNDpesvQx1P9vTxDqkV" version="15.9.4" type="github">
  <diagram id="kgpKYQtTHZ0yAKxKKP6v" name="Page-1">
    <mxGraphModel dx="1387" dy="775" grid="1" gridSize="10" guides="1" tooltips="1" connect="1" arrows="1" fold="1" page="1" pageScale="1" pageWidth="850" pageHeight="1100" math="0" shadow="0">
      <root>
        <mxCell id="0" />
        <mxCell id="1" parent="0" />
        <mxCell id="3nuBFxr9cyL0pnOWT2aG-1" value="Game" style="shape=umlLifeline;perimeter=lifelinePerimeter;container=1;collapsible=0;recursiveResize=0;rounded=0;shadow=0;strokeWidth=1;" parent="1" vertex="1">
          <mxGeometry x="120" y="80" width="100" height="300" as="geometry" />
        </mxCell>
        <mxCell id="3nuBFxr9cyL0pnOWT2aG-2" value="" style="points=[];perimeter=orthogonalPerimeter;rounded=0;shadow=0;strokeWidth=1;" parent="3nuBFxr9cyL0pnOWT2aG-1" vertex="1">
          <mxGeometry x="45" y="70" width="10" height="190" as="geometry" />
        </mxCell>
        <mxCell id="3nuBFxr9cyL0pnOWT2aG-3" value="dispatch" style="verticalAlign=bottom;startArrow=oval;endArrow=block;startSize=8;shadow=0;strokeWidth=1;" parent="3nuBFxr9cyL0pnOWT2aG-1" target="3nuBFxr9cyL0pnOWT2aG-2" edge="1">
          <mxGeometry relative="1" as="geometry">
            <mxPoint x="-15" y="70" as="sourcePoint" />
          </mxGeometry>
        </mxCell>
        <mxCell id="3nuBFxr9cyL0pnOWT2aG-5" value="Player&#xa;" style="shape=umlLifeline;perimeter=lifelinePerimeter;container=1;collapsible=0;recursiveResize=0;rounded=0;shadow=0;strokeWidth=1;" parent="1" vertex="1">
          <mxGeometry x="300" y="80" width="105" height="640" as="geometry" />
        </mxCell>
        <mxCell id="3nuBFxr9cyL0pnOWT2aG-6" value="" style="points=[];perimeter=orthogonalPerimeter;rounded=0;shadow=0;strokeWidth=1;" parent="3nuBFxr9cyL0pnOWT2aG-5" vertex="1">
          <mxGeometry x="45" y="80" width="10" height="560" as="geometry" />
        </mxCell>
        <mxCell id="m74bkKpz1KFqZKb5kjZ5-3" value="" style="html=1;points=[];perimeter=orthogonalPerimeter;" vertex="1" parent="3nuBFxr9cyL0pnOWT2aG-5">
          <mxGeometry x="20" y="110" width="30" height="280" as="geometry" />
        </mxCell>
        <mxCell id="m74bkKpz1KFqZKb5kjZ5-9" value="" style="html=1;points=[];perimeter=orthogonalPerimeter;" vertex="1" parent="3nuBFxr9cyL0pnOWT2aG-5">
          <mxGeometry x="45" y="180" width="10" height="40" as="geometry" />
        </mxCell>
        <mxCell id="m74bkKpz1KFqZKb5kjZ5-10" value="get_startt_point" style="edgeStyle=orthogonalEdgeStyle;html=1;align=left;spacingLeft=2;endArrow=block;rounded=0;exitX=0.486;exitY=0.217;exitDx=0;exitDy=0;exitPerimeter=0;" edge="1" target="3nuBFxr9cyL0pnOWT2aG-6" parent="3nuBFxr9cyL0pnOWT2aG-5" source="3nuBFxr9cyL0pnOWT2aG-5">
          <mxGeometry relative="1" as="geometry">
            <mxPoint x="100" y="150" as="sourcePoint" />
            <Array as="points">
              <mxPoint x="51" y="150" />
              <mxPoint x="130" y="150" />
              <mxPoint x="130" y="290" />
            </Array>
          </mxGeometry>
        </mxCell>
        <mxCell id="m74bkKpz1KFqZKb5kjZ5-22" value="" style="html=1;points=[];perimeter=orthogonalPerimeter;" vertex="1" parent="3nuBFxr9cyL0pnOWT2aG-5">
          <mxGeometry x="50" y="400" width="10" height="40" as="geometry" />
        </mxCell>
        <mxCell id="m74bkKpz1KFqZKb5kjZ5-23" value="get_end_point" style="edgeStyle=orthogonalEdgeStyle;html=1;align=left;spacingLeft=2;endArrow=block;rounded=0;entryX=1;entryY=0;" edge="1" target="m74bkKpz1KFqZKb5kjZ5-22" parent="3nuBFxr9cyL0pnOWT2aG-5">
          <mxGeometry x="0.2" y="10" relative="1" as="geometry">
            <mxPoint x="55" y="380" as="sourcePoint" />
            <Array as="points">
              <mxPoint x="55" y="310" />
              <mxPoint x="140" y="310" />
              <mxPoint x="140" y="400" />
            </Array>
            <mxPoint as="offset" />
          </mxGeometry>
        </mxCell>
        <mxCell id="m74bkKpz1KFqZKb5kjZ5-4" value="place_piece" style="html=1;verticalAlign=bottom;endArrow=block;entryX=0;entryY=0;rounded=0;" edge="1" target="m74bkKpz1KFqZKb5kjZ5-3" parent="1" source="3nuBFxr9cyL0pnOWT2aG-1">
          <mxGeometry relative="1" as="geometry">
            <mxPoint x="310" y="350" as="sourcePoint" />
          </mxGeometry>
        </mxCell>
        <mxCell id="m74bkKpz1KFqZKb5kjZ5-5" value="return" style="html=1;verticalAlign=bottom;endArrow=open;dashed=1;endSize=8;exitX=0;exitY=0.95;rounded=0;" edge="1" source="m74bkKpz1KFqZKb5kjZ5-3" parent="1" target="3nuBFxr9cyL0pnOWT2aG-1">
          <mxGeometry relative="1" as="geometry">
            <mxPoint x="310" y="426" as="targetPoint" />
          </mxGeometry>
        </mxCell>
        <mxCell id="m74bkKpz1KFqZKb5kjZ5-11" value="Board" style="html=1;" vertex="1" parent="1">
          <mxGeometry x="640" y="80" width="110" height="50" as="geometry" />
        </mxCell>
        <mxCell id="m74bkKpz1KFqZKb5kjZ5-12" value="" style="html=1;points=[];perimeter=orthogonalPerimeter;" vertex="1" parent="1">
          <mxGeometry x="690" y="240" width="10" height="80" as="geometry" />
        </mxCell>
        <mxCell id="m74bkKpz1KFqZKb5kjZ5-13" value="has_piece_same_color?" style="html=1;verticalAlign=bottom;endArrow=block;entryX=0;entryY=0;rounded=0;" edge="1" target="m74bkKpz1KFqZKb5kjZ5-12" parent="1">
          <mxGeometry relative="1" as="geometry">
            <mxPoint x="430" y="240" as="sourcePoint" />
          </mxGeometry>
        </mxCell>
        <mxCell id="m74bkKpz1KFqZKb5kjZ5-14" value="return" style="html=1;verticalAlign=bottom;endArrow=open;dashed=1;endSize=8;exitX=0;exitY=0.95;rounded=0;" edge="1" source="m74bkKpz1KFqZKb5kjZ5-12" parent="1">
          <mxGeometry relative="1" as="geometry">
            <mxPoint x="430" y="316" as="targetPoint" />
          </mxGeometry>
        </mxCell>
        <mxCell id="m74bkKpz1KFqZKb5kjZ5-24" value="Piece" style="html=1;" vertex="1" parent="1">
          <mxGeometry x="830" y="80" width="110" height="50" as="geometry" />
        </mxCell>
        <mxCell id="m74bkKpz1KFqZKb5kjZ5-28" value="to(end_point)" style="html=1;verticalAlign=bottom;endArrow=block;rounded=0;" edge="1" parent="1">
          <mxGeometry width="80" relative="1" as="geometry">
            <mxPoint x="355" y="580" as="sourcePoint" />
            <mxPoint x="880" y="580" as="targetPoint" />
          </mxGeometry>
        </mxCell>
      </root>
    </mxGraphModel>
  </diagram>
</mxfile>
